<svg xmlns="http://www.w3.org/2000/svg" width="400" height="400" display="block"><g><path fill="#fff" fill-rule="evenodd" d="M140.5 94.48c0 .15-.95.4-1.58.43-.2.02-.43.08-.54.15-.12.08-.3.1-.38.03-.1-.05-.17-.02-.17.07 0 .1-.35.2-.8.27-.42.06-1.02.18-1.3.27-.3.08-.75.2-1 .23-.27.05-.67.13-.9.18-.23.06-.55.1-.7.1-.16 0-.3.07-.3.16 0 .1-.15.14-.33.1-.18-.06-.3-.03-.24.06.08.13-.48.2-1.46.2-.16 0-.25.06-.2.13.04.07-.28.18-.72.24-.44.05-1.3.24-1.9.4-.62.17-1.16.27-1.2.22-.05-.05-.57.07-1.14.26-.58.2-1.36.36-1.72.38-.37.03-.87.14-1.12.27-.25.12-.77.23-1.17.24-.4 0-.8.1-.92.18-.1.08-.3.1-.44.06-.13-.04-.26 0-.3.1-.03.08-.3.18-.63.2-.32.04-.88.13-1.25.2-.36.08-.7.14-.77.14-.06 0-.16.07-.23.14-.07.06-.36.12-.64.12s-1.03.15-1.67.33c-.63.18-1.5.35-1.96.38-.44.03-.8.1-.8.2 0 .07-.2.1-.4.06-.24-.04-.38 0-.33.06.07.13-.6.2-1.64.2-.16 0-.3.07-.3.16 0 .1-.14.12-.32.07-.17-.04-.34-.02-.37.06-.02.1-.3.17-.63.2-.32 0-1.1.15-1.75.3-.64.18-1.54.35-2 .4-.87.08-1.1.13-1.7.32-.18.07-.7.16-1.15.2-1.5.14-1.65.16-1.75.3-.05.07-.5.17-.98.2-.48.05-1.18.16-1.54.26-.37.1-.77.14-.9.1-.1-.06-.23-.03-.26.05-.03.1-.5.17-1.05.2-.55 0-1.08.07-1.17.14-.2.15-2.03.47-3.2.56-.46.03-.92.1-1 .16-.2.1-1.87.3-2.84.3-.38 0-.7.1-.7.18 0 .1-.22.13-.5.1-.26-.05-.44-.03-.4.05.08.13-.22.16-1.93.2-.32.02-.72.1-.88.17-.17.08-.45.1-.64.05-.18-.05-.33-.02-.33.05 0 .08-.58.2-1.3.24-2.5.2-2.96.25-3.95.42-.55.1-1.78.2-2.75.25-.96.06-1.97.13-2.25.17-2.24.32-4.57.42-10.4.42-6.1 0-7.27-.05-9.18-.43-.23-.05-.85-.12-1.4-.16-.52-.03-1.35-.17-1.82-.3-.48-.13-1.15-.3-1.5-.34-.33-.06-.6-.18-.6-.28 0-.1-.08-.12-.17-.07-.07.06-.2.02-.26-.08s-.2-.14-.34-.1c-.13.06-.23.03-.23-.05 0-.1-.12-.12-.25-.06-.14.06-.25.02-.25-.1 0-.1-.08-.14-.17-.08-.1.05-.17.04-.17-.04 0-.42-3.32-.36-3.82.06-.18.17-.38.3-.43.26-.05-.03-.3.23-.55.58-.6.83-1.4 2.22-1.28 2.22.05 0 0 .28-.14.63-.76 2.04-1.2 8.83-.6 9.2.55.35 5.32 1.14 7.5 1.25 1.05.05 2.88.14 4.05.2 2.4.1 12.34-.25 14.62-.53.23-.03 1.16-.14 2.08-.24.92-.1 2.42-.25 3.33-.35.92-.1 2.12-.22 2.67-.25.55-.04 1.94-.22 3.08-.4 2-.3 5.17-.74 6.6-.9.35-.04 1.33-.2 2.15-.35.83-.14 2.2-.38 3.05-.5 3.68-.6 4.88-.8 6.32-1.1.84-.17 1.77-.32 2.06-.32.3 0 .94-.1 1.43-.26.5-.14 1.2-.28 1.6-.3.4-.04.87-.1 1.05-.16.66-.2 4.1-.88 5.1-1 .3-.05.98-.2 1.5-.33.5-.13 1.24-.28 1.65-.33.42-.05 1.05-.16 1.42-.25 2.08-.53 2.94-.7 3.4-.7.3 0 .67-.07.83-.16.16-.08.5-.18.73-.2.26-.05.5-.13.57-.2.07-.05.36-.1.66-.1.3 0 .73-.08.96-.16.2-.1.73-.2 1.13-.26 1.58-.2 2.33-.48 2.48-.87.1-.2.23-.38.33-.38s.17-.1.17-.24c0-.25.55-.95 1.63-2.07.4-.4.7-.76.7-.8 0-.2 3.7-3.73 3.92-3.73.13 0 .34-.15.45-.33.12-.18.35-.33.52-.33.16 0 .25-.08.2-.17-.06-.1.1-.25.4-.35.26-.1.53-.28.58-.4.05-.14.23-.25.4-.25.2 0 .37-.1.43-.25.05-.14.23-.25.4-.25s.4-.08.5-.2c.18-.17.62-.45 1.37-.83.23-.12.55-.35.7-.52.18-.16.38-.25.47-.2.08.05.3-.06.5-.24.18-.18.52-.33.75-.33.23 0 .4-.07.4-.15 0-.08.22-.2.46-.26.25-.07.64-.25.88-.4.23-.16.76-.43 1.17-.6.42-.15.97-.4 1.22-.52.26-.13.62-.24.8-.24.18 0 .65-.17 1.03-.37.4-.2.83-.34.98-.32.15.03.33-.05.4-.17.07-.12.07-.16 0-.1-.08.07-.28.05-.45-.04-.17-.1-.3-.1-.3-.02m120.17.02l-.42.12.5.1c.27.08.8.27 1.17.45.36.18.77.33.9.33.38 0 2 .7 2 .86 0 .08.22.14.48.14s.63.15.83.33c.2.2.4.34.46.34.04 0 .44.16.87.35.43.2.8.35.83.33.02-.02.16.1.3.23.14.14.33.2.4.16.1-.05.17 0 .17.1s.07.13.16.08c.1-.06.22 0 .27.15.06.15.23.26.4.26.16 0 .48.15.7.34.25.18.52.33.62.33.1 0 .18.07.18.15 0 .1.23.2.5.27.3.06.56.22.6.35.06.13.2.23.33.23.12 0 .28.1.35.2.08.13.34.3.6.42.25.12.45.28.45.38 0 .1.12.17.25.17.14 0 .34.15.46.33.1.18.3.33.4.33.1 0 .48.27.82.6.34.3.68.57.76.57.08 0 .15.1.15.23s.15.27.35.32c.2.05.3.17.24.27s0 .18.16.18c.15 0 .32.15.37.33.03.2.13.34.2.34.24 0 .9.7 1.83 1.9.48.66 1.02 1.3 1.18 1.43.18.14.34.36.37.5.02.13.14.34.25.46.1.12.3.35.42.5.22.3 1.28.67 2.38.8.36.06 1.08.2 1.58.36.5.15 1.25.32 1.67.4.4.06.93.16 1.16.23.23.06.76.15 1.17.2.4.03.86.1 1 .17.4.16.7.23 1.42.3.36.05 1.3.23 2.08.4 1.23.3 2.78.6 4.58.93 1.17.2 1.5.3 1.87.43.23.08.72.16 1.1.16.4 0 .96.1 1.28.2.32.13.92.24 1.34.27.4.03 1.34.2 2.06.38.72.17 1.55.32 1.84.32.28 0 .78.08 1.1.18.32.1.95.2 1.4.26.47.04 1.4.2 2.1.3.68.14 1.66.3 2.16.34.5.05 1.22.17 1.6.26.35.1 1.03.2 1.5.25.75.07 1.6.2 2.24.34.13.02.77.1 1.4.15.66.04 1.94.23 2.87.4.93.2 2.1.34 2.58.34.5 0 1.27.08 1.73.17.46.1 1.47.2 2.25.25.78.05 1.68.13 2 .18.32.04 1.07.12 1.67.17.6.05 1.2.13 1.33.18.84.3 14.6.6 16.67.38.68-.07 2-.18 2.9-.23 1.6-.08 1.97-.13 2.93-.36.23-.06.83-.16 1.33-.24.5-.07 1.13-.2 1.4-.3.25-.1.64-.2.87-.2.23 0 .64-.1.92-.26l.5-.26-.05-2.96c-.03-1.67-.12-2.94-.2-2.88-.08.05-.1-.14-.07-.43.04-.28 0-.48-.06-.43-.07.04-.13-.17-.13-.47.02-.82-.06-1.2-.3-1.43-.1-.13-.2-.35-.22-.5-.04-.54-.07-.62-.52-1.32-.25-.4-.46-.74-.46-.8 0-.12-.9-1-1.05-1-.07 0-.2-.1-.28-.23-.26-.43-3.5-.34-3.97.1-.22.2-.56.3-1 .23-.1-.02-.2.06-.2.16s-.1.15-.25.1c-.14-.05-.25-.02-.25.08s-.1.14-.25.1c-.14-.07-.25-.04-.25.05 0 .1-.16.16-.35.16-.2 0-.74.12-1.2.25-.48.14-1.25.3-1.7.33-.46.04-1.55.2-2.42.33-2.23.37-13.9.37-17.25 0-1.28-.13-3-.28-3.83-.33-.82-.05-2-.16-2.58-.26-.6-.1-1.7-.2-2.42-.25-.73-.05-1.45-.13-1.58-.18-.14-.04-.65-.1-1.14-.15-.5-.04-.98-.12-1.08-.2-.2-.1-1.03-.2-2.24-.2-.3 0-.53-.06-.53-.14 0-.08-.23-.1-.5-.07-.28.05-.5 0-.5-.08s-.5-.17-1.13-.2c-.6 0-1.24-.06-1.4-.1-.47-.15-1-.24-2.4-.4-.72-.1-1.7-.24-2.16-.35-.45-.1-1.42-.25-2.15-.34-.73-.1-1.37-.22-1.42-.3-.04-.06-.53-.14-1.08-.17-.55-.04-1.03-.12-1.05-.2-.03-.07-.18-.1-.35-.05-.15.04-.62-.04-1.03-.18-.42-.15-1.05-.26-1.42-.26-.37 0-.93-.1-1.25-.2-.32-.1-.92-.2-1.33-.25-.4-.06-1.16-.2-1.67-.35-.5-.14-1.14-.28-1.4-.3-.3-.03-.6-.06-.68-.08-.1-.02-.3-.03-.46 0-.17 0-.3-.06-.3-.15 0-.1-.1-.13-.24-.08-.13.05-.34.03-.46-.04-.12-.08-.55-.16-.97-.2-.4-.03-.77-.12-.8-.2-.02-.07-.2-.1-.37-.05-.18.05-.33.02-.33-.06 0-.1-.4-.18-.9-.2-.48-.02-1.33-.18-1.87-.35-.54-.17-1.37-.35-1.86-.4-.48-.06-.97-.16-1.08-.23-.1-.07-.54-.15-.95-.18-.42-.04-.78-.13-.8-.2-.03-.08-.2-.1-.38-.05-.2.04-.33 0-.33-.12 0-.1-.08-.15-.18-.1-.1.07-.3.03-.42-.08-.13-.1-.38-.15-.56-.1-.18.07-.37.04-.42-.04-.06-.1-.25-.12-.43-.08-.2.05-.34 0-.34-.1s-.1-.13-.25-.07c-.14.06-.34.04-.46-.05-.1-.08-.5-.17-.87-.2-.37-.02-1.08-.18-1.58-.34-.5-.16-1.3-.34-1.74-.4-.45-.05-.9-.16-1-.24-.1-.07-.48-.15-.85-.17-.36-.04-1.08-.18-1.58-.32-.5-.15-1.13-.28-1.4-.3-.26-.03-.52-.1-.58-.2-.06-.07-.25-.15-.44-.17-1.12-.1-2.3-.37-2.5-.54-.14-.1-.25-.16-.25-.12 0 .13-1.54-.16-2.08-.4-.27-.1-.7-.2-.92-.23-.23-.02-.4-.04-.4-.06 0-.02-.23-.06-.48-.1-.26-.02-.56-.12-.67-.2-.1-.1-.38-.1-.6-.04m-65.43 4.6c-10.28.36-15.27.75-23.42 1.83-3.83.5-9.56 1.54-12.58 2.26-.73.17-1.82.43-2.42.58-1.93.46-7.07 1.94-7.83 2.25-.23.1-.95.35-1.6.56-.64.2-1.43.5-1.75.62-.3.14-1.24.52-2.07.86-1.67.7-6.22 2.92-7 3.42-.27.18-.6.38-.75.44-.23.12-2.9 1.82-3.25 2.1-2.23 1.7-4.7 4.1-6.04 5.86-.42.56-.87 1.13-1 1.27-.56.64-1.54 2-1.54 2.14 0 .1-.06.2-.13.23-.17.07-1.7 2.44-3 4.6-1.4 2.38-2.7 4.9-4.25 8.2-.62 1.32-.7 1.54-1.7 3.92-.62 1.5-.72 1.75-1.43 3.67-1.2 3.23-1.43 3.9-1.76 5-.16.55-.42 1.4-.58 1.9-.72 2.3-1.75 6.22-2.24 8.5-.14.7-.4 1.9-.58 2.68-.56 2.55-1.37 7.7-1.74 11.08-1.55 14.3-.52 29.32 2.9 42.17.17.64.44 1.65.6 2.25.57 2.25 2.67 8.62 3.43 10.42.5 1.18.57 1.37 1.05 2.58.24.6.54 1.3.67 1.58 1.07 2.36 1.6 3.48 2.6 5.5.64 1.3 1.45 2.86 1.8 3.5 1.47 2.72 1.74 3.18 1.96 3.43.13.16.23.33.23.4 0 .08.23.47.5.88.28.4.5.78.5.83 0 .1 4.1 6.3 4.37 6.65.08.1.55.73 1.06 1.42.5.68 1.06 1.42 1.25 1.64.2.22.33.45.33.5 0 .07.17.3.38.53.22.23.76.9 1.22 1.5.45.6.9 1.16 1 1.25.1.1.6.7 1.12 1.34.52.64 1.2 1.46 1.54 1.83.33.37 1.13 1.27 1.8 2 1.6 1.8 8.75 8.93 10.2 10.17.62.55 1.3 1.15 1.48 1.33.3.3 3.46 3 4.36 3.72.2.15.76.64 1.28 1.07.52.44 1.02.8 1.12.8.1 0 .18.05.18.12 0 .07.46.47 1 .88.57.4 1.13.84 1.25.95.12.1.26.2.3.2.05 0 .26.15.48.33.6.5 2.42 1.84 3.97 2.92.78.54 1.45 1.03 1.5 1.08.14.16 6.47 4.34 6.57 4.34.06 0 .47.26.93.58.46.32.86.58.9.58.05 0 .4.22.8.48.4.27 1.05.66 1.47.88.4.22.78.44.83.5.15.15 2.86 1.67 4.25 2.36.37.2.82.4 1 .5 1.74.92 4.38 2.13 4.64 2.13.1 0 .27.06.36.13.1.08.72.35 1.4.6.7.26 1.9.73 2.67 1.05.78.32 1.6.66 1.84.75 4.44 1.8 14.02 1.48 18.4-.6.47-.23 1.22-.53 1.68-.68.94-.3 3-1.13 4-1.6 2.68-1.22 7.05-3.45 8.42-4.3.32-.2.73-.43.9-.52.2-.1.65-.36 1-.6.38-.22.8-.46.93-.52.14-.06.6-.36 1.04-.66.43-.3.83-.55.87-.55.05 0 .52-.3 1.05-.64.53-.35 1.98-1.3 3.22-2.12 1.23-.8 2.27-1.53 2.3-1.6.03-.07.13-.13.23-.13.15 0 .47-.23 1.42-1 .1-.1.25-.17.3-.17.14 0 1.32-.9 1.4-1.04.02-.07.12-.13.2-.13.1 0 .83-.5 1.62-1.13.8-.63 1.72-1.32 2.05-1.55.33-.22.93-.68 1.33-1.02.4-.33 1.66-1.35 2.8-2.27 1.15-.9 2.35-1.9 2.67-2.17.32-.3.67-.6.8-.7.55-.48 3.38-2.98 4.03-3.57.96-.88 7.22-7.14 8.1-8.1.37-.4 1.3-1.46 2.06-2.33.75-.87 1.57-1.8 1.82-2.08.24-.28.9-1.07 1.44-1.75.54-.7 1.07-1.33 1.17-1.42.1-.1.4-.47.67-.83.47-.65.57-.8 1.02-1.32.12-.14.2-.33.2-.4 0-.1.08-.2.17-.23.26-.1 6.17-8.62 6.17-8.92 0-.04.25-.47.56-.94.3-.46.77-1.22 1.03-1.68.25-.46.56-1.02.7-1.25.12-.23.52-.94.88-1.6.95-1.65 4-7.88 4.74-9.65.34-.83.77-1.8.94-2.2.17-.37.3-.8.3-.94 0-.14.1-.3.17-.36.08-.05.23-.34.32-.63.1-.3.36-1.08.6-1.72.25-.64.5-1.4.6-1.66.06-.28.34-1.14.6-1.92.28-.78.63-1.87.8-2.42.16-.55.4-1.33.55-1.75.14-.4.3-1 .37-1.33.07-.32.34-1.45.6-2.5.66-2.52.98-3.94 1.3-5.67.13-.78.4-2.24.58-3.25.35-1.9.64-4.12 1.14-8.66.42-3.87.42-16.92 0-21-.76-7.25-1.6-12.54-2.8-17.42-.17-.7-.43-1.78-.58-2.42-.15-.64-.4-1.6-.57-2.16-.16-.55-.43-1.5-.6-2.1-.54-1.98-2.16-6.8-3.06-9.1-.2-.5-.48-1.24-.65-1.68-.94-2.4-3.9-8.7-5-10.62-.16-.28-.58-1.03-.94-1.67-.36-.64-.7-1.2-.75-1.25-.04-.05-.25-.4-.47-.8-.2-.37-.68-1.12-1.04-1.65-.38-.53-.88-1.27-1.12-1.63-1.92-2.95-5.54-6.98-7.8-8.7-1.05-.82-2.14-1.58-2.8-1.98-.45-.27-1-.62-1.25-.77-1.08-.68-4.6-2.5-5.95-3.06-.27-.1-.83-.36-1.25-.54-1.48-.67-1.97-.86-2.2-.86-.13 0-.3-.07-.4-.15-.15-.15-1.3-.57-3.4-1.27-.68-.23-1.47-.5-1.75-.6-.27-.1-.76-.24-1.08-.32-.32-.08-1.1-.3-1.75-.48-1.06-.32-2.1-.6-5.92-1.52-3.05-.74-8.58-1.74-12.33-2.22-1.05-.14-2.85-.38-4-.53-1.15-.15-2.9-.33-3.92-.4-1-.08-2.77-.22-3.9-.3-4.96-.44-16.9-.76-21.43-.6m-58.8 7.4c-.15.1-.64.23-1.08.28-.43.05-.86.15-.95.22-.2.14-.92.33-1.67.44-.28.04-.72.15-1 .25-.28.08-.84.22-1.25.3-.4.07-1.28.26-1.92.42-2.54.62-4.82 1.14-6 1.35-.82.15-.7.12-1.4.35-.33.1-.9.22-1.28.26-.38.04-.78.13-.9.2-.1.07-.62.2-1.14.26-.52.07-1.4.24-1.94.38-1.6.4-2.62.63-3.34.7-.6.1-1.22.2-1.66.35-.7.22-3.74.86-4.6.97-.3.04-.76.12-1 .18-.22.07-.78.17-1.24.23-.45.06-.9.16-1.02.23-.1.06-.44.15-.75.2-.3.03-.7.1-.88.14-.2.04-.7.13-1.17.2-.46.08-.87.15-.92.16-.38.12-1.02.25-1.58.32-.37.05-1.15.2-1.75.33-1.1.24-3.8.7-4.83.84-.32.04-1.04.2-1.6.32-.54.12-1.44.27-2 .32-.54.05-1.17.14-1.4.2-.23.06-.83.15-1.34.2-.5.03-1.14.13-1.4.22-.28.1-1 .2-1.6.25-.96.07-1.94.2-2.4.33-.76.2-2.02.38-2.85.42-.55.02-1.17.1-1.4.18-.2.08-1.26.22-2.34.3-1.07.1-2.14.22-2.36.26-1.04.2-2.7.4-4.2.47-.9.04-1.67.1-1.74.16-.07.04-.8.1-1.62.16-8.73.54-18.35.48-21.75-.16-.7-.12-1.6-.27-2-.33-.42-.05-.85-.17-.96-.27-.1-.1-.2-.1-.2-.03s-.1.04-.2-.07c-.1-.1-.44-.2-.74-.2s-.6-.07-.65-.17c-.04-.1-.15-.13-.23-.08-.08.05-.2.02-.25-.08-.06-.1-.26-.17-.44-.17s-.62-.15-.98-.33c-.68-.35-3.5-.5-3.5-.2 0 .08-.2.24-.44.35-.54.24-1.4 1.03-1.4 1.3 0 .1-.1.27-.24.38-.14.12-.25.32-.25.46 0 .12-.15.42-.34.66-.18.23-.33.65-.33.94 0 .28-.1.7-.22.93-.12.23-.23.8-.26 1.25-.02.46-.08.98-.13 1.15-.2.65-.3 6.73-.15 8.27.03.32.1 1.07.15 1.67.08.92.3 2.86.36 3.4 0 .1.07.44.12.76.06.32.14.96.2 1.42.03.46.1.98.16 1.17.16.6.72 3.5.87 4.5.1.63.17.92.5 2.25.15.6.37 1.5.48 2 .12.5.3 1.3.42 1.75.1.46.23 1.06.27 1.33.05.28.22.88.4 1.33.17.46.35 1.06.38 1.34.04.27.15.7.26.97.1.24.2.6.2.76 0 .16.14.63.32 1.03.17.4.34.94.37 1.22.02.27.14.65.25.83.12.18.22.56.22.84 0 .27.08.58.17.68.1.1.2.32.24.5.04.16.07.3.1.3 0 0 .05.23.1.5.04.27.14.58.23.68.1.1.1.24.05.3-.06.06-.02.1.1.1.1 0 .18.2.18.4 0 .22.12.62.25.88.14.26.25.6.25.76 0 .16.14.6.32 1 .4.96.7 1.76.84 2.47.06.32.23.8.38 1.08.45.88.8 1.75.8 2.05 0 .16.14.57.32.9.18.35.34.76.34.92 0 .16.1.44.25.62.12.18.24.48.24.67 0 .2.1.5.25.67.12.18.23.48.23.68 0 .2.14.53.3.75.27.4.63 1.24.78 1.83.08.3.38 1 .58 1.34.3.53.7 1.52.7 1.82 0 .15.1.38.23.5.15.1.22.27.17.35-.05.08 0 .15.1.15.08 0 .16.18.16.4 0 .2.12.5.25.6.14.1.25.38.25.58 0 .2.1.46.23.57.13.1.28.42.33.7.05.28.2.62.35.75.14.14.25.44.25.66 0 .23.07.4.16.4.1 0 .22.2.28.47.06.25.25.65.42.9.17.24.3.55.3.7 0 .14.08.3.18.36.1.04.12.16.07.25-.04.08 0 .15.1.15s.17.15.17.32c0 .18.06.37.14.42.14.07.9 1.5.95 1.76.1.57.3 1 .42 1 .1 0 .16.14.16.3 0 .2.1.42.25.53.13.1.33.47.44.8.1.34.24.66.3.7.17.14 1.35 2.57 1.35 2.8 0 .1.16.34.36.53.2.2.3.34.23.34-.07 0-.06.1.04.2.3.38 1.03 1.84 1.03 2.08 0 .12.07.22.14.22.08 0 .22.17.32.38.1.2.33.7.53 1.12.2.4.54 1.05.77 1.42.22.36.46.78.52.9.06.15.36.65.66 1.13.3.48.55.98.55 1.13 0 .14.07.25.16.25.07 0 .23.27.33.6.1.3.26.57.34.57.08 0 .24.26.35.58.12.32.27.6.35.6.07 0 .13.1.13.24 0 .13.15.4.33.58.2.18.34.45.34.58 0 .14.06.25.14.25.1 0 .28.3.43.67.15.37.34.67.44.67.1 0 .16.14.16.3 0 .2.12.37.25.42.14.05.25.24.25.43 0 .18.07.34.15.34.1 0 .35.38.6.86.25.47.56.97.7 1.1.12.12.22.33.22.46 0 .1.1.28.22.35.12.07.4.47.63.88.22.42.46.78.52.8.07.04.25.32.4.63.15.32.33.57.42.57.07 0 .13.15.13.33 0 .18.1.38.22.46.1.07.3.34.4.6.12.24.3.45.38.45.1 0 .17.1.17.25 0 .13.07.25.16.25.08 0 .2.17.27.37.06.2.26.5.43.65.17.13.3.35.3.47s.12.34.25.48c.14.15.4.44.6.64.18.2.33.48.33.62 0 .13.08.25.17.25.1 0 .33.34.53.76s.45.8.58.85c.13.05.43.45.67.9.24.44.54.84.67.9.12.04.23.2.23.33 0 .15.07.27.17.27s.3.26.44.57c.15.32.34.54.4.5.1-.05.15.05.15.23s.12.37.25.42c.14.05.25.2.25.33s.12.28.25.33c.14.05.25.2.25.3 0 .13.15.34.34.47.18.13.33.34.33.46 0 .1.1.25.25.3.14.06.25.2.25.33s.07.24.15.24c.08 0 .38.37.67.82.3.44.64.85.77.9.12.05.23.17.23.27s.2.38.42.63c.23.24.42.5.42.6 0 .08.18.32.4.53.24.2.43.47.43.57 0 .1.1.22.25.27.14.06.25.17.25.26 0 .08.26.42.58.75.32.33.62.74.68.9.05.18.2.32.33.32s.23.12.23.25c0 .15.12.3.25.36.14.06.25.18.25.27 0 .1.17.35.38.56.22.2.57.6.8.9.23.27.7.8 1.04 1.16.34.37.63.73.63.8 0 .1.26.37.58.63.32.25.58.52.58.6 0 .07.25.4.55.7 1.48 1.58 1.8 1.94 1.8 2.04 0 .06.46.58 1.04 1.15.6.57 1.1 1.17 1.17 1.32.05.16.18.23.28.17.1-.05.22.06.27.25.05.2.2.35.32.35.13 0 .23.07.23.15 0 .22 7.05 7.26 7.22 7.2.08 0 .18.13.23.3.05.2.16.35.25.35.08 0 .5.36.93.8.44.43 1.12 1.06 1.54 1.4.66.54 1.44 1.23 2.86 2.55.25.23.53.42.63.42.1 0 .17.1.17.25 0 .13.1.25.22.25s.4.16.58.37c.2.2.64.6.97.88.34.27.75.63.92.8.17.15.36.28.4.28.06 0 .2.1.33.2.12.12.54.48.92.8.38.32.87.75 1.1.96.2.2.46.37.56.37.1 0 .17.08.17.17 0 .1.2.25.42.33.23.1.4.23.4.32 0 .1.15.2.3.25.16.06.54.32.83.6.3.27.6.5.7.5.08 0 .2.1.24.25.05.14.2.25.34.25.15 0 .26.07.26.17s.1.16.25.16c.14 0 .25.08.25.17 0 .1.1.17.24.17.14 0 .33.15.43.33.1.18.27.33.4.33.1 0 .35.15.5.34.18.18.42.33.54.33.13 0 .23.08.23.17 0 .1.2.24.42.33.23.1.42.23.42.3 0 .1.13.2.3.27.48.18 1.03.54 1.38.9.18.2.43.36.54.36.1 0 .46.23.77.5.3.28.66.5.78.5s.22.08.22.17c0 .1.18.2.4.26.24.06.43.17.43.24 0 .07.26.25.58.4.32.16.6.35.6.44 0 .1.12.16.28.16.17 0 .43.15.6.33.14.2.38.34.52.34s.25.07.25.15c0 .1.42.35.92.6.5.23.92.5.92.57 0 .07.26.23.58.33.32.1.58.25.58.3 0 .08.2.22.46.33.5.23 2.07 1.1 3.2 1.77.4.25.88.5 1.04.55.16.05.3.16.3.24 0 .08.13.15.3.15.18 0 .5.15.74.33.23.18.53.33.67.33.13 0 .34.12.45.25.1.14.34.25.5.25.18 0 .35.06.4.14.07.12.9.54 2.6 1.34.32.16.62.32.67.37.13.13.87.46 1.3.58.2.06.36.18.36.26 0 .1.18.17.4.17.2 0 .56.15.77.33.2.18.52.33.68.33.16 0 .54.13.85.28.3.16.7.35.84.43.16.07.43.2.6.3.8.4 2.3.97 3 1.12.2.05.36.16.36.24 0 .07.15.13.32.13.18 0 .35.08.38.17.03.1.26.18.5.2.26.02.47.1.47.15 0 .06.28.16.63.23.34.06.85.24 1.13.4.4.25.95.45 1.57.6.62.14 2.03.67 2.1.78.05.08.3.14.55.14.25 0 .6.1.78.25.18.13.52.24.75.25.25 0 .5.05.56.12.13.12.4.2 1.23.33.3.05.53.15.53.24 0 .07.06.12.13.1.07 0 .18 0 .25.03.08.03.2.06.26.08.07.03.24.1.37.14.14.06.48.14.75.2.5.07 1.77.4 2.25.56.14.05.4.1.57.14.18.04.4.13.5.2.1.1.48.2.85.24.75.1 1.9.35 3.25.75.5.14 1.25.3 1.67.38.4.08.93.18 1.16.24.23.07.68.15 1 .2.32.03 1.15.17 1.84.3.68.13 1.7.32 2.25.42.55.1 1.15.23 1.33.28.18.04.78.12 1.33.17.55.05 1.42.16 1.92.26 1.06.2 1.56.24 3.48.4.77.05 1.5.14 1.62.2.18.05.23-.1.23-.65v-.72l-1.3-.3c-1.7-.42-2.9-.83-4.24-1.44-.6-.28-1.2-.5-1.33-.5-.12 0-.52-.16-.9-.34-.35-.18-.72-.32-.8-.33-.07 0-.4-.12-.75-.27-.33-.14-.83-.35-1.1-.47-1.75-.75-5.28-2.47-6.8-3.32-.43-.23-1.14-.63-1.58-.88-.43-.24-.98-.55-1.2-.67-.24-.13-.65-.38-.92-.56-.28-.18-.75-.46-1.04-.6-.3-.17-.55-.36-.55-.43 0-.08-.15-.14-.33-.14-.18 0-.33-.06-.33-.13 0-.08-.2-.25-.46-.38-.38-.2-.97-.57-2.37-1.48-.13-.1-.87-.58-1.64-1.08-.77-.5-1.46-.93-1.55-.93-.08 0-.15-.06-.15-.14 0-.08-.26-.3-.58-.46-.32-.17-.6-.37-.6-.44s-.06-.13-.16-.13c-.15 0-3.6-2.4-3.83-2.66-.04-.04-.2-.16-.36-.25-.33-.2-3.55-2.6-4.1-3.1-.22-.17-.46-.32-.53-.32-.08 0-.18-.1-.23-.25-.05-.13-.2-.25-.34-.25s-.26-.06-.26-.13-.4-.43-.87-.8c-.77-.58-1.08-.83-1.96-1.6-.14-.13-.66-.56-1.16-.97-.5-.4-1.03-.86-1.18-1-.14-.13-.44-.4-.67-.6-4.17-3.5-10.22-9.53-13.82-13.73-.4-.48-.87-1-1-1.15-.16-.15-.64-.72-1.08-1.27-.44-.55-.85-1.03-.9-1.08-.07-.05-.93-1.13-1.9-2.42-1-1.28-1.9-2.46-2.04-2.62-.12-.17-.23-.34-.23-.4 0-.03-.08-.16-.17-.28-.6-.72-1.5-1.93-1.5-2.02 0-.15-.88-1.33-1.04-1.4-.07-.03-.13-.12-.13-.2 0-.12-1.65-2.72-1.98-3.1-.1-.1-.37-.57-.63-1.05-.7-1.28-.8-1.44-1-1.7-.1-.12-.42-.67-.72-1.22-.3-.55-.78-1.4-1.06-1.9-1.07-1.94-1.27-2.3-2.15-4.1-.95-1.9-1.6-3.28-2.37-5-.25-.55-.56-1.2-.7-1.47-.12-.25-.23-.54-.23-.63 0-.1-.1-.4-.23-.7-.12-.28-.4-.93-.6-1.44-.2-.5-.48-1.16-.6-1.46-.13-.3-.24-.7-.24-.87 0-.17-.07-.36-.16-.4-.1-.07-.27-.47-.4-.9-.14-.43-.33-1-.43-1.28-.3-.87-1.28-3.96-1.6-5.1-.15-.58-.4-1.52-.57-2.07-.16-.55-.42-1.56-.58-2.25-.16-.7-.43-1.85-.6-2.58-3.06-13.22-3.5-30.38-1.15-44.34.72-4.25.86-5.04 1.15-6.25.17-.68.44-1.85.6-2.58.15-.73.4-1.78.57-2.33.16-.55.42-1.53.58-2.17.16-.64.38-1.47.5-1.83.12-.37.38-1.23.58-1.92.2-.7.45-1.44.54-1.67.1-.23.23-.64.3-.9.08-.3.34-1.04.58-1.68.24-.64.55-1.5.7-1.92.13-.4.32-.82.4-.9.08-.1.15-.27.15-.4s.1-.47.23-.75c.12-.3.36-.87.52-1.28.16-.4.44-1.1.62-1.5.18-.4.42-.97.54-1.25.34-.77 1.44-3.13 1.65-3.5.1-.18.36-.7.57-1.17.2-.46.46-.94.55-1.08.1-.14.23-.4.3-.58.1-.2.65-1.2 1.26-2.23.6-1.06 1.1-1.94 1.1-1.97 0-.04.27-.44.6-.9.3-.45.57-.9.57-1 0-.1.06-.16.14-.16.07 0 .26-.27.4-.6.16-.3.36-.57.46-.57.1 0 .17-.08.17-.18 0-.2.84-1.37 1.04-1.46.08-.03.13-.14.13-.25 0-.1.17-.37.38-.6.22-.23.65-.75.97-1.17 1.67-2.15 3.98-4.42 6.2-6.07 2.88-2.14 6.5-4.12 11.28-6.16.78-.33 1.5-.6 1.6-.6.1 0 .45-.15.8-.33.34-.2.77-.34.95-.34.18 0 .33-.08.33-.17 0-.1.08-.13.17-.08.1.06.17.03.17-.07 0-.2-.33-.2-.7 0m127.03.15c0 .1.13.18.3.18.16 0 .55.14.87.3.32.2.82.38 1.12.44.3.07.57.2.63.28.05.08.2.15.33.15.62 0 8.56 3.97 8.7 4.36.04.08.14.14.23.14.8 0 6.36 4.75 8.38 7.17 1.12 1.34 1.7 2.1 1.8 2.37.06.16.2.3.28.3.1 0 .17.1.17.24 0 .14.06.25.13.25s.27.27.44.6c.18.3.38.57.46.57.08 0 .14.1.14.25 0 .14.06.25.14.25.07 0 .26.24.4.54.28.52.56 1 .84 1.37.43.6.95 1.47.95 1.6 0 .06.12.22.25.33.14.12.25.35.25.52 0 .18.07.32.15.32.1 0 .24.2.34.46.1.25.48.98.84 1.62.63 1.1 1.86 3.58 2.5 5 .17.37.53 1.15.8 1.75.26.6.62 1.42.78 1.83.16.42.43 1.05.6 1.42.18.37.33.73.33.8 0 .1.1.4.23.67.13.3.27.68.32.86.05.2.25.75.44 1.25.3.8.6 1.62 1.65 4.75.1.28.28.88.4 1.34.14.46.4 1.36.6 2 .34 1.12.47 1.62 1.18 4.5.6 2.46.73 3 .85 3.66.07.37.2 1.16.33 1.75.87 4.6.85 4.53 1.6 10.34.44 3.4.64 7.6.64 13.25 0 7.08-.23 10.58-1.1 16.4-.1.7-.23 1.7-.3 2.26-.06.55-.24 1.6-.4 2.34-.16.73-.4 1.9-.53 2.58-.14.7-.33 1.6-.43 2-.1.4-.24 1.05-.3 1.42-.07.36-.25 1.1-.4 1.66-.17.55-.4 1.42-.55 1.92-.4 1.46-.93 3.22-1.1 3.67-.1.23-.24.68-.3 1-.08.32-.34 1.1-.58 1.75-.25.64-.5 1.3-.53 1.5-.06.18-.24.65-.42 1.04-.17.38-.3.78-.3.87 0 .08-.12.4-.25.7-.13.3-.36.9-.53 1.3-.16.42-.42 1.05-.57 1.42-.15.37-.4 1-.57 1.42-.16.4-.36.88-.44 1.04-.1.17-.22.43-.3.6-.1.15-.37.77-.63 1.36-.45 1-2.23 4.55-2.93 5.84-.18.32-.53.96-.78 1.42-.76 1.38-1.2 2.14-1.53 2.66-.17.28-.42.7-.55.92-.47.86-.7 1.25-.8 1.33-.06.05-.23.3-.38.6-.16.26-.43.7-.6 1-.2.26-.42.66-.53.86-.1.2-.25.37-.33.37-.07 0-.14.07-.14.16 0 .16-.48.9-1.82 2.75-.46.64-1.03 1.47-1.28 1.84-.53.8-4.35 5.7-4.76 6.12-.16.16-.3.33-.3.37 0 .05-.2.3-.45.58-.42.45-1.4 1.58-2.2 2.52-1.47 1.78-8.28 8.7-10.66 10.83-.67.6-1.3 1.17-1.4 1.28-.13.12-.8.7-1.54 1.32-.72.62-1.34 1.18-1.37 1.27-.03.07-.12.13-.2.13-.08 0-.32.17-.54.38-.8.75-1.67 1.47-1.8 1.47-.1 0-.2.1-.28.2-.08.13-1.22 1.07-2.55 2.1-1.33 1.02-2.5 1.93-2.62 2.03-.1.1-.28.17-.38.17-.1 0-.17.06-.17.13 0 .2-5.9 4.37-6.18 4.37-.1 0-.15.06-.15.14 0 .08-.27.3-.6.46-.3.17-.57.37-.57.44s-.07.13-.16.13c-.1 0-.77.42-1.5.92-.75.5-1.43.92-1.5.92-.1 0-.17.05-.17.12 0 .06-.36.3-.8.52-.43.23-.92.52-1.08.66-.33.26-.87.6-1.4.83-.18.1-.43.3-.55.43-.12.15-.36.27-.54.27-.16 0-.3.06-.3.14 0 .07-.24.26-.54.4-.3.17-1.22.67-2.04 1.13-2.37 1.3-7.16 3.63-8.75 4.24-.42.17-1.07.44-1.47.62-.4.17-.82.3-.96.3s-.8.28-1.45.6c-.67.32-1.3.58-1.42.58-.1 0-.45.1-.75.23s-1.13.37-1.84.53l-1.3.3v.74c0 .56.06.7.23.65.13-.05.86-.14 1.62-.2 2.03-.15 2.65-.23 3.4-.4.37-.1 1.06-.18 1.53-.18.48 0 1.05-.07 1.28-.16.23-.08.7-.18 1.05-.23.36-.04.76-.1.9-.16.14-.04.63-.12 1.08-.16.46-.05 1.08-.16 1.37-.25.3-.1.86-.2 1.25-.22.4-.03.96-.14 1.25-.26.3-.12.8-.22 1.1-.22.32 0 .83-.1 1.14-.24.3-.13.9-.28 1.3-.34s1.07-.22 1.46-.35c.4-.13.9-.24 1.1-.24.22 0 .67-.1 1-.25.33-.14.62-.25.65-.24.03 0 .16-.02.3-.06.74-.22 2.3-.63 2.58-.67.2-.03.56-.14.84-.26.57-.24 1.82-.6 2.9-.87.43-.1.84-.24.92-.32.1-.08.33-.15.54-.15.2 0 .62-.15.92-.33.3-.2.74-.34.97-.34.23 0 .56-.12.74-.25.2-.14.5-.25.68-.25.2 0 .62-.15.96-.33.35-.18.76-.34.92-.34.16 0 .44-.1.6-.25.2-.12.47-.23.63-.23.16 0 .54-.15.84-.34.3-.18.68-.33.84-.33.17 0 .73-.2 1.26-.47.52-.26 1.17-.53 1.44-.6.28-.07.54-.2.6-.28.05-.1.3-.2.56-.25.25-.04.57-.2.7-.32.14-.14.34-.25.45-.25.1 0 .7-.26 1.34-.58.64-.32 1.3-.58 1.45-.58.15 0 .38-.1.5-.23.27-.26 2-1.1 2.26-1.1.1 0 .2-.06.23-.13.05-.1 1.2-.7 1.8-.94.14-.05.5-.26.83-.45.94-.56 2.04-1.13 2.2-1.13.08 0 .3-.15.5-.34.2-.18.5-.33.67-.33.16 0 .3-.06.3-.13 0-.08.47-.38 1.04-.68 2.04-1.07 2.7-1.45 2.88-1.64.1-.1.58-.4 1.08-.66.5-.26.96-.53 1.02-.6.12-.2.7-.55 1.36-.84.25-.1.45-.26.45-.33s.12-.13.26-.13c.13 0 .3-.1.34-.25.05-.13.35-.33.66-.44.3-.1.57-.26.57-.33 0-.08.1-.14.25-.14.13 0 .25-.08.25-.17 0-.1.22-.25.48-.35.27-.08.53-.26.58-.4.05-.13.2-.23.35-.23.14 0 .25-.07.25-.14 0-.08.27-.3.6-.46.3-.17.57-.37.57-.44s.1-.13.2-.13c.2 0 1.3-.8 2-1.4.17-.15.36-.27.44-.27.08 0 .28-.15.44-.33.17-.18.4-.33.53-.33s.23-.08.23-.17c0-.1.2-.25.42-.33.23-.1.42-.23.42-.3 0-.1.37-.4.83-.7.46-.3.83-.6.83-.7 0-.1.07-.1.16-.06.08.06.23-.04.33-.23.1-.2.3-.34.43-.34s.24-.05.24-.12c0-.06.38-.38.83-.7.46-.32.83-.64.83-.7 0-.08.1-.13.2-.13s.35-.17.55-.38c.2-.22.6-.53.86-.72.27-.18.7-.54.96-.8.26-.24.5-.45.57-.45.04 0 .33-.24.63-.54.3-.3.74-.7.98-.88.25-.2.62-.5.82-.7.2-.18.58-.47.83-.63.25-.17.45-.4.45-.55 0-.13.07-.2.16-.14.1.07.26-.04.38-.23.1-.18.3-.34.42-.34.1 0 .2-.1.2-.25 0-.13.1-.25.23-.25.1 0 .43-.26.7-.58.26-.32.52-.58.57-.58.32 0 11.16-10.8 11.16-11.13 0-.05.38-.45.84-.9.45-.43.83-.87.83-.96 0-.1.1-.18.25-.18.14 0 .25-.07.25-.15 0-.08.5-.66 1.08-1.3.6-.62 1.08-1.2 1.08-1.27 0-.08.3-.44.67-.8.37-.36.67-.72.67-.8 0-.08.1-.2.25-.24.14-.05.25-.2.25-.35 0-.15.1-.27.2-.27.13 0 .35-.2.5-.46.15-.25.5-.7.75-1 .25-.28.58-.68.73-.86.14-.17.5-.58.8-.9.28-.33.52-.65.52-.73 0-.08.26-.43.58-.78.32-.35.6-.7.6-.77 0-.07.1-.17.24-.22.13-.05.25-.17.25-.26 0-.1.13-.3.3-.48.52-.57.86-1.03.86-1.2 0-.08.15-.23.34-.33.18-.1.33-.3.33-.42s.06-.23.13-.23c.06 0 .38-.38.7-.84.3-.46.62-.83.7-.83.07 0 .14-.07.14-.16 0-.1.13-.33.3-.52.15-.2.45-.55.65-.8.2-.24.38-.53.38-.65 0-.1.07-.2.17-.2s.16-.1.16-.22c0-.1.15-.32.34-.45.18-.13.33-.32.33-.4 0-.1.23-.42.5-.72s.5-.63.5-.75.15-.33.33-.46c.2-.13.34-.34.34-.46 0-.1.1-.25.25-.3.13-.06.25-.22.25-.36 0-.14.14-.37.3-.52.18-.15.37-.44.43-.65.07-.2.2-.37.28-.37.08 0 .15-.1.15-.22s.2-.4.42-.6c.23-.23.42-.5.42-.63 0-.12.07-.22.16-.22.1 0 .17-.1.17-.25 0-.13.08-.25.18-.25.1 0 .25-.22.34-.48.1-.27.28-.53.4-.58.14-.05.25-.2.25-.36 0-.14.1-.36.2-.5.5-.54.63-.73.63-.9 0-.1.07-.17.17-.17s.16-.1.16-.25c0-.13.07-.25.16-.25.07 0 .2-.17.26-.37.06-.2.24-.53.4-.7.17-.2.43-.6.6-.93.15-.32.4-.64.5-.7.14-.1.24-.28.24-.44 0-.16.15-.42.33-.58.2-.16.34-.4.34-.53 0-.15.07-.27.16-.27.1 0 .2-.18.27-.4.06-.24.17-.43.26-.43.1 0 .12-.07.06-.16-.05-.08 0-.2.12-.3.1-.06.38-.48.6-.9.2-.45.45-.8.53-.8.07 0 .22-.27.33-.6.1-.3.25-.57.33-.57.07 0 .18-.2.24-.42.06-.23.18-.42.27-.42.1 0 .16-.14.16-.32 0-.17.1-.38.2-.45.12-.07.4-.5.63-.97.23-.46.65-1.2.94-1.66.28-.46.72-1.2.97-1.67.66-1.24.75-1.4.93-1.7.1-.17.28-.58.43-.93.15-.34.34-.62.42-.62.08 0 .15-.14.15-.3 0-.2.1-.42.25-.53.13-.12.25-.34.25-.5 0-.15.13-.42.3-.6.32-.34.6-.9.56-1.1-.02-.08.05-.14.14-.14.1 0 .16-.15.16-.33 0-.18.06-.33.13-.33s.23-.25.35-.54c.24-.55 1.3-2.75 1.66-3.38.1-.18.35-.7.54-1.12.2-.44.43-.84.52-.9.08-.04.1-.16.06-.24-.06-.1-.03-.17.06-.17.1 0 .22-.22.28-.5.06-.27.18-.54.26-.6.08-.04.15-.2.15-.34 0-.15.14-.46.3-.7.18-.25.37-.66.43-.9.06-.26.2-.47.28-.47.1 0 .16-.15.16-.33 0-.18.25-.83.56-1.45.3-.63.78-1.64 1.03-2.26.24-.63.5-1.13.6-1.13.07 0 .13-.15.13-.33 0-.3.33-1.2.72-1.92.53-1 .74-1.5.68-1.63-.05-.08 0-.13.1-.13s.17-.16.17-.34c0-.2.15-.64.34-1 .18-.37.3-.66.24-.66s.05-.2.24-.44c.2-.24.35-.58.35-.75 0-.16.1-.55.23-.85.13-.3.38-.92.57-1.38.18-.46.52-1.3.75-1.86.23-.57.38-1.08.32-1.13-.05-.06 0-.1.1-.1s.18-.06.16-.13c-.05-.23.37-1.53.54-1.63.1-.04.16-.3.16-.58 0-.27.07-.5.17-.5s.15-.04.14-.1c-.03-.26.25-1.23.4-1.32.07-.05.1-.16.04-.25-.05-.08-.03-.15.06-.15.08 0 .16-.1.17-.2.1-.77.26-1.3.4-1.3.1 0 .14-.05.08-.1-.06-.06-.04-.24.05-.4.08-.15.2-.48.23-.73.05-.24.2-.68.34-.97.15-.28.26-.68.26-.88 0-.2.1-.5.25-.68.13-.18.25-.53.25-.78s.15-.74.34-1.08c.18-.34.33-.8.33-1 0-.2.1-.66.25-1 .13-.35.27-.83.3-1.07.06-.24.17-.6.27-.77.1-.2.18-.53.18-.76 0-.23.1-.63.2-.88.24-.6.22-.55.36-1.15.07-.28.22-.88.35-1.33.13-.46.3-1.14.35-1.5.06-.37.16-.74.22-.83.12-.2.15-.3.3-1.18.04-.37.13-.78.2-.92.13-.4.2-.68.35-1.7.1-.53.2-1.03.26-1.13.14-.22.27-.78.36-1.5.04-.32.18-1.2.3-1.92.33-1.8.7-4.35.93-6.17.1-.82.22-1.72.27-2 .28-1.63.2-9.04-.12-10.5-.17-.8-.34-1.7-.36-1.96-.02-.26-.1-.52-.17-.56-.08-.05-.1-.15-.05-.23.05-.08 0-.2-.08-.25-.1-.05-.17-.28-.17-.5 0-.23-.07-.4-.16-.4-.1 0-.2-.2-.27-.42-.05-.22-.24-.53-.42-.7-.17-.15-.32-.34-.32-.42 0-.17-.62-.8-.8-.8-.06 0-.3-.16-.53-.34-.56-.44-2.96-.48-3.6-.06-.2.14-.4.2-.4.12 0-.08-.06-.05-.13.05-.07.12-.3.24-.54.27-.23.03-.5.12-.63.2-.12.07-.46.16-.75.2-.3.05-.95.23-1.45.4s-1.33.35-1.83.4c-.5.04-1.18.15-1.5.24-2.24.64-15.74.64-22 .02-.97-.1-2.65-.25-3.75-.33-1.1-.1-2.38-.24-2.84-.33-.45-.1-1.58-.25-2.5-.33-.9-.08-1.85-.2-2.08-.25-.23-.07-.98-.16-1.67-.2-.68-.06-1.92-.24-2.74-.42-.83-.17-1.8-.3-2.18-.32-.37 0-.97-.08-1.34-.17-.36-.1-1.04-.22-1.5-.26-1.37-.14-5.25-.8-6-1-.18-.05-.78-.16-1.33-.24-.55-.08-1.2-.18-1.42-.22-.23-.05-.8-.13-1.25-.2-.45-.05-1.47-.24-2.25-.4-1.6-.37-3.12-.65-4.6-.85-.54-.08-1.33-.26-1.74-.4-.42-.14-.98-.26-1.25-.26s-1-.1-1.58-.24c-.6-.14-1.7-.37-2.42-.5-2.58-.52-4.52-.95-6.08-1.33-.14-.03-.62-.1-1.07-.17-.46-.06-.9-.16-1-.23-.24-.14-.5-.2-1.73-.37-.58-.1-1.14-.2-1.25-.28-.1-.07-.35-.14-.54-.17-1.1-.13-1.65-.24-1.8-.34-.26-.15-.56-.22-1.36-.32-.37-.04-.78-.12-.92-.17-.43-.17-.72-.24-1.73-.4-.55-.08-1.07-.2-1.17-.3-.1-.06-.48-.14-.85-.17-.36-.02-1.03-.18-1.5-.35-.46-.17-1.1-.34-1.42-.4-.8-.1-3.03-.6-3.33-.7-.4-.17-.7-.25-1.58-.4-.46-.07-.97-.2-1.13-.25-.18-.07-.3-.04-.3.07M161.17 178.1v-13.77h12.5v57.42l-21.13-21.13c-11.62-11.6-21.22-21.12-21.33-21.12-.16 0-.2 2.85-.2 13.67v13.66h-12.33V149.34l21.25 21.25 21.25 21.26V178.1m70-.04v13.73l-7.52 7.5-7.52 7.53h-24.96v-12.5h20.09l3.8-3.8 3.78-3.78v-10.07h-30.16v15.17c0 10.08-.06 15.15-.17 15.08-.1-.06-.17-.03-.17.05 0 .2-1.15 1.36-1.36 1.36-.08 0-.13.06-.1.13.1.16-1.15 1.38-1.27 1.25-.06-.04-.1 0-.1.1 0 .25-.94 1.2-1.07 1.08-.05-.06-.1-.02-.1.08 0 .23-1.14 1.37-1.37 1.37-.1 0-.14.05-.1.1.14.13-1.07 1.37-1.24 1.28-.06-.02-.12.02-.12.12 0 .24-.95 1.18-1.07 1.06-.05-.06-.1-.02-.1.08 0 .22-1.14 1.37-1.36 1.37-.08 0-.13.06-.1.13.1.16-1.15 1.38-1.27 1.25-.06-.04-.1 0-.1.1 0 .2-1 1.3-1 1.08 0-.07-.08-.02-.17.12-.1.16-.16-9.42-.16-27.2v-27.47h55v13.73m55.16-7.56v6.17h-20v30.16h-12.5v-30.16h-20v-12.34h52.5v6.17m-132.16 64.17V250h19.33V246.35l2.75-.05 2.75-.05V255h-30.33v-35.67h5.5v15.34m70-14.9c0 .12.08.23.2.23.25 0 2.4 1.78 2.53 2.1.05.14.17.2.26.16.1-.06.24.05.34.24.1.2.25.3.34.24.1-.05.2.02.26.16s.62.64 1.25 1.1c.63.48 1.1.94 1.05 1.02-.05.08-.03.13.05.1.15-.04.54.25 1.02.75.15.16.33.3.4.3.06 0 .4.28.75.62.35.33.7.62.75.62.07 0 .48.3.9.7.45.38 1.23 1.04 1.73 1.47.5.42 1 .87 1.1 1 .1.13.23.2.28.13.05-.05.22.1.38.34.15.23.34.4.42.34.07-.03.2.03.27.16s.7.7 1.4 1.25c.7.57 1.32 1.14 1.38 1.28.05.14.15.24.23.2.13-.03.22.04 1.07.8.25.2.88.72 1.42 1.14.53.4 1.1.9 1.24 1.06.14.16.6.57.98.9.4.3.9.74 1.1.94.22.2.45.38.5.4.14 0 1.3.97 2.48 2.02.38.34.78.63.88.63.14 0 .2-3 .2-11.42v-11.42h5.33V255.06l-.38-.34c-.22-.18-.87-.75-1.47-1.25-1.64-1.4-2.2-1.85-2.6-2.24-.2-.2-.48-.4-.63-.45-.15-.06-.27-.18-.27-.28 0-.1-.1-.17-.25-.17-.13 0-.25-.06-.25-.13s-.3-.36-.65-.63c-.36-.26-.6-.54-.57-.6.05-.08 0-.14-.1-.14-.26 0-2.1-1.5-2.04-1.7.02-.07-.03-.13-.12-.13-.17 0-2.28-1.66-3.13-2.46-.3-.28-.53-.46-.54-.4 0 .06-.13-.05-.3-.24-.15-.2-.84-.8-1.53-1.33-.68-.54-1.33-1.06-1.43-1.15-.1-.1-.62-.54-1.16-1-.53-.46-1.14-1-1.34-1.2-.2-.18-.5-.4-.64-.44-.16-.06-.23-.2-.16-.3.07-.1.05-.15-.05-.1-.16.1-1.16-.68-2.38-1.86-.32-.3-.6-.54-.62-.5-.02.05-.93-.7-1.95-1.6-.1-.1-.52-.44-.93-.77-.42-.33-1-.83-1.3-1.1l-.54-.52V255h-5.5v-17.84c0-11.86.06-17.8.17-17.74.1.05.17.2.17.34m-23 .66c.2.36.63 1.14.94 1.73.32.6.65 1.17.75 1.28.1.13.13.3.07.4-.06.1-.04.17.04.17s.25.2.38.46c.13.25.37.66.54.9.17.27.26.47.2.47s.05.2.24.44c.2.24.35.52.35.63 0 .1.15.37.32.6.16.2.26.5.22.62-.05.12 0 .2.1.2.08 0 .36.4.6.9.24.47.6 1.1.77 1.4.18.3.3.55.24.55s.08.26.3.6c.22.3.68 1.12 1 1.78.35.66.8 1.5 1 1.87 1.05 1.9 1.74 3.25 1.67 3.25-.04 0 .07.16.26.36.2.2.34.43.34.52 0 .08.16.37.34.63.2.27.3.5.23.5-.06 0-.03.1.08.2.1.13.44.73.76 1.34.34.6.87 1.62 1.2 2.24.33.62.86 1.6 1.18 2.2.3.6.64 1.16.72 1.24.08.07.1.24.05.37s0 .23.1.23.28.2.4.46c.1.25.32.66.5.9.17.27.25.47.2.47-.08 0-.02.13.13.3.15.16.34.47.44.7.1.23.4.8.66 1.25.26.46.45.9.4.96-.03.07 0 .13.1.13.13 0 .7.98.7 1.23 0 .3-5.97.1-6.08-.2-.05-.15-.4-.8-.75-1.45-.9-1.6-1.38-2.56-1.32-2.64.03-.03-.07-.2-.22-.37-.26-.3-.9-1.48-.97-1.8-.02-.1-.18-.36-.35-.58-.17-.22-.3-.5-.3-.62 0-.13-.15-.38-.3-.57-.16-.18-.3-.4-.28-.46.02-.06-.1-.3-.3-.5-.16-.23-.3-.5-.3-.64 0-.2-1.32-.23-7.82-.23h-7.8l-.2.46c-.1.24-.37.75-.6 1.12-.2.36-.6 1.08-.87 1.58-1.86 3.48-2.7 5.02-3.16 5.8-.2.33-.42.75-.48.9-.1.3-6.06.5-6.06.2 0-.1 1.1-2.2 1.93-3.65.2-.37.54-1 .75-1.42.2-.4.52-.95.7-1.2.17-.26.26-.46.2-.46s.05-.22.24-.5c.2-.25.35-.52.35-.6 0-.05.15-.32.34-.6.2-.25.3-.47.25-.47-.06 0 .05-.2.24-.44.48-.62.3-.73-1.18-.73H184v-5H189.62l.4-.75c.22-.4.45-.75.52-.75s.13-.1.13-.2c0-.12.12-.44.27-.7.15-.3.66-1.26 1.14-2.18.48-.92 1.1-2.08 1.37-2.58.28-.5.78-1.44 1.13-2.1.34-.63.7-1.2.8-1.28.12-.07.15-.13.08-.13-.2 0 .7-1.67.9-1.67.1 0 .12-.06.07-.14-.08-.14-.06-.2 1.07-2.28.88-1.64 1.43-2.65 2.24-4.16.83-1.54.78-1.47.93-1.3.07.07.3.43.5.8m-.82 9.9c-.1.07-.2.16-.16.2.07.1-1.37 3.02-1.66 3.35-.14.16-.2.3-.14.3.07 0-.03.2-.22.48-.2.27-.35.57-.35.68 0 .1-.15.42-.34.7-.2.25-.3.47-.25.47.06 0-.05.22-.24.48-.18.27-.33.56-.33.64 0 .08-.16.32-.35.53-.2.2-.3.4-.26.47.05.05-.05.3-.23.55-.18.26-.33.5-.33.56 0 .06 2.3.1 5.08.1 5.08 0 5.74-.07 4.93-.58-.17-.1-1.5-2.7-1.5-2.94 0-.08-.15-.3-.33-.5-.18-.2-.3-.4-.24-.48.04-.07 0-.18-.1-.23-.08-.07-.4-.62-.72-1.23-.3-.62-.83-1.66-1.17-2.32-.66-1.3-.76-1.43-1.08-1.23"/></g></svg>