<svg xmlns="http://www.w3.org/2000/svg" viewBox="0 0 704.86 249.53">
    <defs>
        <style>.a{fill:#fff;}</style>
    </defs>
    <title>poweredby_apility_white</title>
    <path class="a"
          d="M216.95,352.82V281.76c0-.95.15-1.88.15-2.84a74.84,74.84,0,1,0-21.42,52.35v21.55Zm-21.27-73.9v2.85a53.07,53.07,0,1,1,.1-3.8c0,.32-.1.62-.1.95"
          transform="translate(-67.92 -140.88)"/>
    <rect class="a" x="347.37" y="99.75" width="21.41" height="112.04"/>
    <path class="a"
          d="M426,226.08a10.75,10.75,0,0,0,7.55-18.31,10.27,10.27,0,0,0-7.63-3,10.62,10.62,0,0,0-7.52,3,10.66,10.66,0,0,0,0,15.13,10.64,10.64,0,0,0,7.62,3.18"
          transform="translate(-67.92 -140.88)"/>
    <path class="a" d="M518.67,204.73h0a10.58,10.58,0,1,0,7.57,3.05,10.59,10.59,0,0,0-7.57-3.05"
          transform="translate(-67.92 -140.88)"/>
    <rect class="a" x="439.84" y="99.71" width="21.41" height="112.18"/>
    <rect class="a" x="393.41" y="63.28" width="21.41" height="148.51"/>
    <path class="a"
          d="M262.93,390.41V331.07a74.6,74.6,0,1,0-21.37-52.24c0,1,.11,1.89.14,2.84V390.41Zm-.1-112.53a53.75,53.75,0,1,1,.1,3.79v-2.84c0-.32-.07-.63-.1-.95"
          transform="translate(-67.92 -140.88)"/>
    <path class="a"
          d="M644,241.17v38a53.66,53.66,0,1,0,107.32,0l-.15-38,21.41-.29.14,38.17A75.34,75.34,0,0,1,708,353.68v36.74H686.59V353.55a75.26,75.26,0,0,1-64-74.35v-38Z"
          transform="translate(-67.92 -140.88)"/>
    <polygon class="a"
             points="519.04 62.95 519.04 99.58 534.27 99.58 534.27 119.31 519.04 119.31 519.04 211.94 497.62 211.94 497.62 119.31 482.12 119.31 482.12 99.58 497.62 99.58 497.62 62.95 519.04 62.95"/>
    <path class="a"
          d="M74.48,149.38v3h.09a5.49,5.49,0,0,1,2.85-2.7,10.63,10.63,0,0,1,4.27-.84,10.07,10.07,0,0,1,4.51.95,9.18,9.18,0,0,1,3.19,2.57,11.36,11.36,0,0,1,1.92,3.73A15.26,15.26,0,0,1,92,160.6a15.75,15.75,0,0,1-.63,4.49,10.58,10.58,0,0,1-1.9,3.69,9,9,0,0,1-3.19,2.48,10.36,10.36,0,0,1-4.47.91,11.11,11.11,0,0,1-1.83-.17,10.2,10.2,0,0,1-2-.56,7.83,7.83,0,0,1-1.88-1.06,5.89,5.89,0,0,1-1.49-1.66h-.09V180.2H70.81V149.38Zm13.18,7.92a8.22,8.22,0,0,0-1.25-2.65,6.14,6.14,0,0,0-2.16-1.86,6.56,6.56,0,0,0-3.09-.69,6.06,6.06,0,0,0-5.27,2.65,8,8,0,0,0-1.19,2.7,13.07,13.07,0,0,0,0,6.24,7.86,7.86,0,0,0,1.23,2.7,6.28,6.28,0,0,0,2.18,1.88,6.81,6.81,0,0,0,3.24.71,6.27,6.27,0,0,0,3.17-.73,5.9,5.9,0,0,0,2.05-1.94,8.47,8.47,0,0,0,1.12-2.76,14.69,14.69,0,0,0,.35-3.19A11.4,11.4,0,0,0,87.66,157.3Z"
          transform="translate(-67.92 -140.88)"/>
    <path class="a"
          d="M95.75,156a10.4,10.4,0,0,1,2.07-3.71,9.76,9.76,0,0,1,3.41-2.48,12.5,12.5,0,0,1,9.34,0,9.82,9.82,0,0,1,3.39,2.48A10.42,10.42,0,0,1,116,156a14.87,14.87,0,0,1,.69,4.6,14.66,14.66,0,0,1-.69,4.57,10.44,10.44,0,0,1-2.07,3.69,9.57,9.57,0,0,1-3.39,2.46,12.78,12.78,0,0,1-9.34,0,9.51,9.51,0,0,1-3.41-2.46,10.42,10.42,0,0,1-2.07-3.69,14.65,14.65,0,0,1-.69-4.57A14.86,14.86,0,0,1,95.75,156Zm3.73,8.2A7.52,7.52,0,0,0,101,166.8a6.44,6.44,0,0,0,2.22,1.62,6.76,6.76,0,0,0,5.39,0,6.45,6.45,0,0,0,2.22-1.62,7.55,7.55,0,0,0,1.49-2.63,12.3,12.3,0,0,0,0-7.21,7.79,7.79,0,0,0-1.49-2.65,6.35,6.35,0,0,0-2.22-1.64,6.76,6.76,0,0,0-5.39,0A6.34,6.34,0,0,0,101,154.3,7.77,7.77,0,0,0,99.49,157a12.3,12.3,0,0,0,0,7.21Z"
          transform="translate(-67.92 -140.88)"/>
    <path class="a"
          d="M139.26,171.7,134.72,154h-.09l-4.49,17.74h-4L119,149.38h4.06l5,18.26h.09l4.49-18.26h4l4.66,18.26h.09l5-18.26h3.8l-7.12,22.31Z"
          transform="translate(-67.92 -140.88)"/>
    <path class="a"
          d="M169.55,170.27a10.13,10.13,0,0,1-6.3,1.9,11.47,11.47,0,0,1-4.64-.86,9.14,9.14,0,0,1-3.3-2.42,10.26,10.26,0,0,1-2-3.71,17.83,17.83,0,0,1-.76-4.7,13.43,13.43,0,0,1,.78-4.66,11.15,11.15,0,0,1,2.18-3.67,9.89,9.89,0,0,1,3.32-2.42,10.15,10.15,0,0,1,4.21-.86A9.16,9.16,0,0,1,168,150.1a9.78,9.78,0,0,1,3.15,3.13,12.37,12.37,0,0,1,1.64,4.14,17.78,17.78,0,0,1,.37,4.27h-16.7a8.84,8.84,0,0,0,.35,2.78,6.29,6.29,0,0,0,1.25,2.33,6.16,6.16,0,0,0,2.2,1.62,7.59,7.59,0,0,0,3.15.6,6.35,6.35,0,0,0,3.82-1.08,5.22,5.22,0,0,0,2-3.28h3.63A8.92,8.92,0,0,1,169.55,170.27Zm-.88-14.33a6.29,6.29,0,0,0-1.34-2,6.36,6.36,0,0,0-2-1.34,6.28,6.28,0,0,0-2.52-.5,6.39,6.39,0,0,0-2.57.5,5.93,5.93,0,0,0-2,1.36,6.5,6.5,0,0,0-1.29,2,7.62,7.62,0,0,0-.56,2.44h12.82A7.54,7.54,0,0,0,168.67,155.94Z"
          transform="translate(-67.92 -140.88)"/>
    <path class="a"
          d="M180.25,149.38v4.7h.09a9.94,9.94,0,0,1,3.28-4,8.25,8.25,0,0,1,4.92-1.21v3.88a10.39,10.39,0,0,0-3.75.6,5.92,5.92,0,0,0-2.5,1.77A7.32,7.32,0,0,0,180.9,158a15.26,15.26,0,0,0-.43,3.82v9.93H176.8V149.38Z"
          transform="translate(-67.92 -140.88)"/>
    <path class="a"
          d="M206.32,170.27a10.13,10.13,0,0,1-6.3,1.9,11.47,11.47,0,0,1-4.64-.86,9.14,9.14,0,0,1-3.3-2.42,10.26,10.26,0,0,1-2-3.71,17.83,17.83,0,0,1-.76-4.7,13.43,13.43,0,0,1,.78-4.66,11.15,11.15,0,0,1,2.18-3.67,9.89,9.89,0,0,1,3.32-2.42,10.15,10.15,0,0,1,4.21-.86,9.16,9.16,0,0,1,4.94,1.23,9.78,9.78,0,0,1,3.15,3.13,12.37,12.37,0,0,1,1.64,4.14,17.78,17.78,0,0,1,.37,4.27H193.2a8.84,8.84,0,0,0,.35,2.78,6.29,6.29,0,0,0,1.25,2.33,6.16,6.16,0,0,0,2.2,1.62,7.59,7.59,0,0,0,3.15.6A6.35,6.35,0,0,0,204,167.9a5.22,5.22,0,0,0,2-3.28h3.63A8.92,8.92,0,0,1,206.32,170.27Zm-.88-14.33a6.29,6.29,0,0,0-1.34-2,6.36,6.36,0,0,0-2-1.34,6.28,6.28,0,0,0-2.52-.5,6.39,6.39,0,0,0-2.57.5,5.93,5.93,0,0,0-2,1.36,6.5,6.5,0,0,0-1.29,2,7.62,7.62,0,0,0-.56,2.44H206A7.54,7.54,0,0,0,205.44,155.94Z"
          transform="translate(-67.92 -140.88)"/>
    <path class="a"
          d="M230,171.7v-3h-.09a5.4,5.4,0,0,1-2.85,2.68,10.88,10.88,0,0,1-4.27.82,10.07,10.07,0,0,1-4.51-.95,9.27,9.27,0,0,1-3.19-2.55,11.08,11.08,0,0,1-1.92-3.71,15.25,15.25,0,0,1-.65-4.49,15.73,15.73,0,0,1,.63-4.49,10.56,10.56,0,0,1,1.9-3.69,9.18,9.18,0,0,1,3.19-2.5,10.16,10.16,0,0,1,4.47-.93,10.91,10.91,0,0,1,1.86.17,9.46,9.46,0,0,1,2,.58,8.5,8.5,0,0,1,1.88,1.08,5.94,5.94,0,0,1,1.49,1.66H230V140.88h3.67V171.7Zm-13.19-7.92a8.21,8.21,0,0,0,1.25,2.65,6.12,6.12,0,0,0,2.16,1.86,6.54,6.54,0,0,0,3.09.69,6.06,6.06,0,0,0,5.27-2.65,8,8,0,0,0,1.19-2.7,13.06,13.06,0,0,0,0-6.24,7.85,7.85,0,0,0-1.23-2.7,6.28,6.28,0,0,0-2.18-1.88,6.81,6.81,0,0,0-3.24-.71,6.3,6.3,0,0,0-3.15.73,5.85,5.85,0,0,0-2.07,1.94,8.45,8.45,0,0,0-1.12,2.76,14.66,14.66,0,0,0-.35,3.19A11.4,11.4,0,0,0,216.79,163.78Z"
          transform="translate(-67.92 -140.88)"/>
    <path class="a"
          d="M255.09,140.88V152.4h.09a5.49,5.49,0,0,1,2.85-2.7,10.63,10.63,0,0,1,4.27-.84,10.07,10.07,0,0,1,4.51.95,9.18,9.18,0,0,1,3.19,2.57,11.36,11.36,0,0,1,1.92,3.73,15.26,15.26,0,0,1,.65,4.49,15.75,15.75,0,0,1-.63,4.49,10.58,10.58,0,0,1-1.9,3.69,9,9,0,0,1-3.19,2.48,10.36,10.36,0,0,1-4.47.91,11.11,11.11,0,0,1-1.83-.17,10.2,10.2,0,0,1-2-.56,7.83,7.83,0,0,1-1.88-1.06,5.89,5.89,0,0,1-1.49-1.66h-.09v3h-3.67V140.88Zm13.18,16.42a8.22,8.22,0,0,0-1.25-2.65,6.14,6.14,0,0,0-2.16-1.86,6.56,6.56,0,0,0-3.09-.69,6.06,6.06,0,0,0-5.27,2.65,8,8,0,0,0-1.19,2.7,13.07,13.07,0,0,0,0,6.24,7.86,7.86,0,0,0,1.23,2.7,6.28,6.28,0,0,0,2.18,1.88A6.81,6.81,0,0,0,262,169a6.27,6.27,0,0,0,3.17-.73,5.9,5.9,0,0,0,2.05-1.94,8.47,8.47,0,0,0,1.12-2.76,14.69,14.69,0,0,0,.35-3.19A11.4,11.4,0,0,0,268.27,157.3Z"
          transform="translate(-67.92 -140.88)"/>
    <path class="a"
          d="M285.64,174.67a23.46,23.46,0,0,1-1.27,2.76,7.58,7.58,0,0,1-1.38,1.83,4.69,4.69,0,0,1-1.68,1,6.48,6.48,0,0,1-2.14.32,9.77,9.77,0,0,1-1.29-.09,6.14,6.14,0,0,1-1.25-.3v-3.37a6.16,6.16,0,0,0,1.1.37,4.64,4.64,0,0,0,1.06.15,3.15,3.15,0,0,0,1.88-.54,3.31,3.31,0,0,0,1.14-1.53l1.51-3.75-8.85-22.18h4.14l6.52,18.26h.09l6.26-18.26h3.88Z"
          transform="translate(-67.92 -140.88)"/>
</svg>